<svg version="1.2" xmlns="http://www.w3.org/2000/svg" viewBox="0 0 131 57" width="131" height="57">
	<title>logo-svg</title>
	<style>
		.s0 { fill: #05c700 } 
		.s1 { fill: #404040 } 
	</style>
	<path id="Sungai Alam" class="s0" aria-label="Sungai Alam"  d="m11.9 22.3v1.7q-1.1-0.5-2.1-0.7-1-0.3-1.9-0.3-1.5 0-2.4 0.6-0.8 0.6-0.8 1.6 0 0.9 0.5 1.3 0.6 0.5 2.2 0.7l1.1 0.3q2.2 0.3 3.2 1.3 1 1 1 2.6 0 1.9-1.4 2.9-1.3 1-4 1-1 0-2.2-0.3-1.1-0.2-2.3-0.6v-1.8q1.1 0.6 2.3 0.9 1.1 0.3 2.2 0.3 1.6 0 2.5-0.6 0.9-0.6 0.9-1.7 0-1-0.6-1.5-0.7-0.6-2.1-0.8l-1.2-0.2q-2.2-0.4-3.1-1.3-1-0.8-1-2.3 0-1.8 1.3-2.8 1.4-1 3.7-1 1 0 2.1 0.2 1 0.1 2.1 0.5zm3.6 8.8v-6h1.7v5.9q0 1.4 0.6 2.1 0.6 0.7 1.8 0.7 1.4 0 2.2-0.8 0.9-0.8 0.9-2.3v-5.6h1.7v9.9h-1.7v-1.5q-0.7 0.9-1.5 1.3-0.8 0.5-2 0.5-1.8 0-2.8-1.1-0.9-1.1-0.9-3.1zm4.4-6.2zm17 4.1v6h-1.7v-5.9q0-1.4-0.6-2.1-0.6-0.7-1.8-0.7-1.4 0-2.2 0.8-0.9 0.9-0.9 2.3v5.6h-1.7v-9.9h1.7v1.6q0.7-0.9 1.5-1.4 0.9-0.4 2-0.4 1.8 0 2.8 1 0.9 1.1 0.9 3.1zm10.6 0.9q0-1.7-0.8-2.7-0.8-1-2.2-1-1.5 0-2.2 1-0.8 1-0.8 2.7 0 1.8 0.8 2.8 0.7 0.9 2.2 0.9 1.4 0 2.2-0.9 0.8-1 0.8-2.8zm1.7-4.8v8.7q0 2.5-1.2 3.7-1.2 1.3-3.7 1.3-0.9 0-1.8-0.2-0.8-0.1-1.5-0.4v-1.5q0.7 0.3 1.5 0.5 0.7 0.2 1.5 0.2 1.7 0 2.6-0.8 0.9-0.9 0.9-2.5v-0.8q-0.6 0.8-1.4 1.3-0.9 0.4-2.1 0.4-1.9 0-3.1-1.4-1.2-1.4-1.2-3.7 0-2.2 1.2-3.6 1.2-1.4 3.1-1.4 1.2 0 2.1 0.4 0.8 0.4 1.4 1.3v-1.5zm10.2 4.9h-1.8q-2.1 0-2.9 0.5-0.8 0.4-0.8 1.5 0 0.9 0.6 1.4 0.6 0.5 1.6 0.5 1.5 0 2.4-1 0.9-0.9 0.9-2.5zm1.7-0.7v5.7h-1.7v-1.5q-0.6 0.9-1.5 1.3-0.9 0.4-2.2 0.4-1.7 0-2.6-0.8-1-0.9-1-2.3 0-1.7 1.2-2.5 1.2-0.9 3.6-0.9h2.5v-0.1q0-1.2-0.8-1.8-0.8-0.6-2.3-0.6-0.9 0-1.7 0.2-0.9 0.2-1.7 0.6v-1.5q0.9-0.3 1.9-0.5 0.9-0.2 1.7-0.2 2.3 0 3.5 1.2 1.1 1.1 1.1 3.3zm3.6 5.7v-9.9h1.8v9.9zm0-11.7v-2.1h1.7v2.1zm19.1 6.8l-2.6-6.5-2.6 6.5zm-9.1 4.9l5.4-13.2h2.2l5.4 13.2h-2l-1.3-3.4h-6.4l-1.3 3.4zm15 0v-13.8h1.8v13.8zm12-5h-1.7q-2.2 0-3 0.4-0.8 0.5-0.8 1.6 0 0.8 0.6 1.4 0.6 0.5 1.7 0.5 1.5 0 2.3-1 0.9-1 0.9-2.5zm1.8-0.7v5.6h-1.8v-1.5q-0.6 0.9-1.5 1.4-0.9 0.4-2.2 0.4-1.6 0-2.6-0.9-1-0.8-1-2.3 0-1.6 1.2-2.5 1.3-0.8 3.7-0.8h2.4v-0.2q0-1.1-0.8-1.7-0.8-0.6-2.2-0.6-0.9 0-1.8 0.2-0.9 0.2-1.7 0.6v-1.5q1-0.3 1.9-0.5 0.9-0.2 1.8-0.2 2.3 0 3.4 1.1 1.2 1.1 1.2 3.4zm11.9-2.4q0.7-1.1 1.6-1.6 0.9-0.5 2.1-0.5 1.7 0 2.6 1.1 0.9 1.1 0.9 3.1v5.9h-1.8v-5.9q0-1.4-0.5-2.1-0.5-0.7-1.7-0.7-1.3 0-2.1 0.9-0.8 0.8-0.8 2.2v5.6h-1.8v-5.9q0-1.4-0.5-2.1-0.6-0.7-1.7-0.7-1.3 0-2.1 0.9-0.8 0.8-0.8 2.2v5.6h-1.8v-9.9h1.8v1.6q0.6-0.9 1.4-1.4 0.9-0.4 2-0.4 1.2 0 2 0.6 0.8 0.5 1.2 1.5z"/>
	<path id="Desa" class="s1" aria-label="Desa"  d="m17.5 16.3h-1.3v5.9h1.3q1.7 0 2.5-0.7 0.8-0.7 0.8-2.3 0-1.5-0.8-2.2-0.8-0.7-2.5-0.7zm-2.4 6.7v-7.5h2.3q2.3 0 3.4 0.9 1.1 0.9 1.1 2.8 0 2-1.1 2.9-1.1 0.9-3.4 0.9zm13.7-3.1v0.5h-4.6q0.1 1 0.6 1.5 0.6 0.5 1.6 0.5 0.6 0 1.1-0.2 0.6-0.1 1.1-0.4v0.9q-0.5 0.2-1.1 0.3-0.6 0.1-1.2 0.1-1.4 0-2.3-0.7-0.8-0.8-0.8-2.2 0-1.4 0.8-2.2 0.8-0.8 2.2-0.8 1.2 0 1.9 0.8 0.7 0.7 0.7 1.9zm-4.6-0.2h3.6q0-0.8-0.4-1.2-0.5-0.5-1.2-0.5-0.9 0-1.4 0.4-0.5 0.5-0.6 1.3zm10.2-2.2v0.9q-0.5-0.2-0.9-0.3-0.5-0.1-1-0.1-0.7 0-1.1 0.2-0.4 0.2-0.4 0.6 0 0.4 0.3 0.6 0.3 0.1 1.1 0.3l0.3 0.1q1.1 0.2 1.5 0.6 0.5 0.4 0.5 1 0 0.8-0.7 1.3-0.7 0.4-1.8 0.4-0.5 0-1.1 0-0.5-0.1-1.1-0.3v-1q0.6 0.3 1.1 0.4 0.6 0.2 1.1 0.2 0.7 0 1.1-0.3 0.4-0.2 0.4-0.6 0-0.4-0.3-0.6-0.3-0.2-1.2-0.4h-0.4q-0.9-0.2-1.3-0.6-0.4-0.4-0.4-1 0-0.8 0.6-1.2 0.6-0.5 1.7-0.5 0.6 0 1.1 0.1 0.4 0.1 0.9 0.2zm5.7 2.7h-1q-1.3 0-1.7 0.2-0.5 0.3-0.5 0.9 0 0.5 0.4 0.8 0.3 0.3 0.9 0.3 0.8 0 1.4-0.6 0.5-0.5 0.5-1.4zm1-0.4v3.2h-1v-0.9q-0.4 0.6-0.9 0.8-0.5 0.3-1.3 0.3-0.9 0-1.4-0.5-0.6-0.5-0.6-1.3 0-1 0.7-1.5 0.7-0.5 2.1-0.5h1.4q0-0.7-0.5-1-0.5-0.4-1.3-0.4-0.5 0-1 0.1-0.5 0.1-0.9 0.4v-0.9q0.5-0.2 1-0.3 0.5-0.1 1-0.1 1.4 0 2 0.7 0.7 0.6 0.7 1.9z"/>
</svg>